<?xml version="1.0" encoding="utf-8"?>
<!-- Generator: Avocode 2.4.5 - http://avocode.com -->
<svg height="18" width="8" xmlns:xlink="http://www.w3.org/1999/xlink" xmlns="http://www.w3.org/2000/svg" viewBox="0 0 8 18">
    <path fill="#ffffff" fill-rule="evenodd" d="M 8 5.83 C 8 5.83 5.28 5.83 5.28 5.83 C 5.28 5.83 5.28 3.96 5.28 3.96 C 5.28 3.26 5.72 3.09 6.03 3.09 C 6.35 3.09 7.96 3.09 7.96 3.09 C 7.96 3.09 7.96 0.01 7.96 0.01 C 7.96 0.01 5.31 0 5.31 0 C 2.37 0 1.7 2.3 1.7 3.77 C 1.7 3.77 1.7 5.83 1.7 5.83 C 1.7 5.83 0 5.83 0 5.83 C 0 5.83 0 9.01 0 9.01 C 0 9.01 1.7 9.01 1.7 9.01 C 1.7 13.09 1.7 18 1.7 18 C 1.7 18 5.28 18 5.28 18 C 5.28 18 5.28 13.04 5.28 9.01 C 5.28 9.01 7.69 9.01 7.69 9.01 C 7.69 9.01 8 5.83 8 5.83 Z" />
</svg>