<?xml version="1.0" encoding="utf-8"?>
<!-- Generator: Avocode 2.4.5 - http://avocode.com -->
<svg height="16" width="16" xmlns:xlink="http://www.w3.org/1999/xlink" xmlns="http://www.w3.org/2000/svg" viewBox="0 0 16 16">
    <path fill="#ffffff" fill-rule="evenodd" d="M 14.82 16 C 14.82 16 1.18 16 1.18 16 C 0.53 16 0 15.49 0 14.85 C 0 14.85 0 1.15 0 1.15 C 0 0.51 0.53 0 1.18 0 C 1.18 0 14.82 0 14.82 0 C 15.47 0 16 0.51 16 1.15 C 16 1.15 16 14.85 16 14.85 C 16 15.49 15.47 16 14.82 16 Z M 2.43 13.39 C 2.43 13.39 4.85 13.39 4.85 13.39 C 4.85 13.39 4.85 6.17 4.85 6.17 C 4.85 6.17 2.43 6.17 2.43 6.17 C 2.43 6.17 2.43 13.39 2.43 13.39 Z M 3.66 2.69 C 2.83 2.69 2.29 3.22 2.29 3.93 C 2.29 4.63 2.82 5.18 3.63 5.18 C 3.63 5.18 3.64 5.18 3.64 5.18 C 4.48 5.18 5.01 4.63 5.01 3.93 C 4.99 3.22 4.48 2.69 3.66 2.69 Z M 13.56 9.25 C 13.56 7.03 12.37 6 10.78 6 C 9.5 6 8.92 6.7 8.6 7.19 C 8.6 7.19 8.6 6.17 8.6 6.17 C 8.6 6.17 6.19 6.17 6.19 6.17 C 6.22 6.85 6.19 13.39 6.19 13.39 C 6.19 13.39 8.6 13.39 8.6 13.39 C 8.6 13.39 8.6 9.36 8.6 9.36 C 8.6 9.14 8.62 8.93 8.68 8.77 C 8.86 8.34 9.26 7.89 9.92 7.89 C 10.8 7.89 11.15 8.56 11.15 9.53 C 11.15 9.53 11.15 13.39 11.15 13.39 C 11.15 13.39 13.56 13.39 13.56 13.39 C 13.56 13.39 13.56 9.25 13.56 9.25 Z M 8.59 7.22 C 8.59 7.21 8.6 7.2 8.6 7.19 C 8.6 7.19 8.6 7.22 8.6 7.22 C 8.6 7.22 8.59 7.22 8.59 7.22 Z" />
</svg>