<?xml version="1.0" encoding="utf-8"?>
<!-- Generator: Avocode 2.4.5 - http://avocode.com -->
<svg height="14" width="20" xmlns:xlink="http://www.w3.org/1999/xlink" xmlns="http://www.w3.org/2000/svg" viewBox="0 0 20 14">
    <path fill="#ffffff" fill-rule="evenodd" d="M 16 2.28 C 15.99 2.28 15.97 2.26 15.96 2.25 C 15.21 1.59 14.33 1.27 13.32 1.31 C 13.32 1.31 13.29 1.24 13.29 1.24 C 13.3 1.24 13.3 1.24 13.31 1.24 C 14.23 1.04 14.77 0.83 14.93 0.61 C 14.99 0.43 14.92 0.33 14.72 0.31 C 14.26 0.36 13.83 0.46 13.45 0.6 C 13.93 0.31 14.12 0.11 14.01 0 C 13.54 0.01 13.03 0.24 12.49 0.69 C 12.69 0.37 12.77 0.2 12.72 0.17 C 12.46 0.33 12.24 0.51 12.04 0.7 C 11.64 1.13 11.32 1.53 11.07 1.89 C 11.07 1.89 11.05 1.92 11.05 1.92 C 10.41 2.9 9.96 3.89 9.69 4.9 C 9.69 4.9 9.6 4.97 9.6 4.97 C 9.6 4.97 9.58 4.99 9.58 4.99 C 9.19 4.53 8.73 4.15 8.17 3.84 C 7.52 3.44 6.75 3.05 5.87 2.68 C 4.9 2.21 3.92 1.82 2.93 1.52 C 2.92 2.57 3.47 3.4 4.54 4.01 C 4.54 4.01 4.54 4.03 4.54 4.03 C 4.16 4.02 3.8 4.07 3.44 4.18 C 3.51 5.15 4.24 5.82 5.62 6.19 C 5.62 6.19 5.62 6.21 5.62 6.21 C 5.08 6.18 4.63 6.36 4.28 6.73 C 4.73 7.57 5.54 7.97 6.7 7.94 C 6.47 8.05 6.29 8.17 6.17 8.31 C 5.96 8.52 5.89 8.77 5.96 9.05 C 6.21 9.48 6.66 9.68 7.32 9.65 C 7.32 9.65 7.32 9.65 7.32 9.65 C 7.32 9.65 7.36 9.69 7.36 9.69 C 7.35 9.7 7.34 9.7 7.34 9.71 C 6.2 10.82 4.82 11.32 3.2 11.22 C 3.2 11.22 3.18 11.23 3.18 11.23 C 2.2 11.22 1.14 10.78 0 9.89 C 1.15 11.45 2.67 12.57 4.55 13.28 C 6.71 13.95 8.87 14 11.02 13.42 C 11.02 13.42 11.05 13.42 11.05 13.42 C 13.14 12.86 14.91 11.69 16.37 9.92 C 17.04 8.99 17.47 8.11 17.64 7.26 C 18.73 7.3 19.51 7 20 6.37 C 20 6.37 19.99 6.35 19.99 6.35 C 19.63 6.47 18.91 6.44 17.86 6.23 C 17.86 6.23 17.86 6.12 17.86 6.12 C 17.86 6.12 17.86 6.12 17.87 6.12 C 19.02 6 19.7 5.65 19.92 5.06 C 19.12 5.36 18.32 5.37 17.54 5.09 C 17.39 4.06 16.88 3.13 16 2.28 Z" />
</svg>